<svg viewBox="0 0 512 512" role="img" xmlns="http://www.w3.org/2000/svg"><title>Akkoma</title><path d="M 238.07737,86.478754 C 326.85973,17.68622 371.94004,-8.2776922 382.86502,2.2646391 394.88154,13.86028 367.05652,45.585704 353.80752,98.61021 c -2.5037,10.02018 -3.86839,28.15497 -4.09407,54.40439 83.57836,46.40673 123.96143,82.58474 121.14923,108.53401 -1.48156,13.671 -41.07138,11.41797 -118.76945,-6.7591 37.01185,90.50363 48.20985,163.674 33.59398,219.51109 -15.79294,60.33387 -79.93191,37.06479 -103.64427,-1.79775 -20.63025,-33.81123 -29.0031,-88.87378 -40.55678,-86.96884 C 214.97918,389.9044 178.82068,522.02067 85.328002,511.39166 37.260413,505.92694 36.368733,438.64824 45.530324,382.12699 59.249736,297.48684 90.65481,230.85995 139.74554,182.24632 80.808623,154.74299 53.005347,136.31768 56.335716,126.97041 c 8.803587,-24.70883 66.769624,-19.4799 97.400174,-20.13327 9.47037,-0.202 25.17147,0.73812 47.1033,2.82039 17.68256,-9.917883 30.09529,-17.644141 37.23818,-23.178776 z M 211.97763,210 c -37.46882,11.38803 -56.12743,35.95829 -55.9758,73.71077 0.0989,24.63099 40.95072,34.7816 70.8282,30.23261 60.24423,-9.17248 48.86363,-41.21507 40.18206,-62.65399 -2.71247,-6.69837 -9.60638,-16.24915 -20.68174,-28.65233 z" /></svg>
