<?xml version="1.0" encoding="UTF-8" standalone="no"?>
<!-- Created with Inkscape (http://www.inkscape.org/) -->

<svg
   width="759"
   height="759"
   viewBox="0 0 200.81963 200.81814"
   version="1.1"
   id="svg1"
   xmlns="http://www.w3.org/2000/svg"
   xmlns:svg="http://www.w3.org/2000/svg">
  <defs
     id="defs1" />
  <g
     id="layer1">
    <path
       style="fill:#000000;stroke-width:0.264584"
       d="m 87.991639,175.50946 c -2.268128,-3.99954 -2.302875,-6.3008 -1.495862,-10.59006 0.762163,-4.05089 -2.283046,-6.82129 -2.052187,-10.4617 0.151712,-2.39234 -2.388094,-4.068 -0.774033,-5.4002 2.803722,-2.31412 -0.03899,-6.11313 -1.591334,-7.84586 -1.577169,-1.76044 -1.939088,-4.22029 -2.838441,-6.14995 -0.907729,-1.94763 -2.277496,-3.52287 -3.784585,-4.4942 -4.094646,-2.63903 -5.683608,-4.41337 -5.67688,-9.93454 0.0063,-5.16867 -4.694248,-7.7012 -8.240082,-8.57767 -4.52768,-1.11917 -10.481086,-2.78356 -9.500168,-7.03375 0.635342,-2.75285 -1.41351,-2.8442 -3.013434,-6.554087 -0.60286,-1.397908 -2.290311,-3.495448 -3.594224,-4.810746 -1.551277,-1.564821 -2.669726,-2.993986 -3.326883,-5.902339 -0.765847,-3.38938 -9.664565,-5.55892 -8.042247,-8.751857 1.832704,-3.607005 -0.68398,-5.976539 -1.182682,-9.698003 -0.481211,-3.590947 -0.794609,-7.178629 -1.205192,-10.591709 -0.441615,-3.671046 0.943417,-8.029264 1.242793,-10.845714 0.358538,-3.373038 2.397206,-4.475793 2.130566,-7.617277 -0.327132,-3.854193 2.000869,-6.744384 4.392139,-8.570466 2.257602,-1.724007 1.765908,-3.890186 4.395843,-7.034293 2.064326,-2.467918 4.443258,-3.53176 7.966783,-4.303631 3.595127,-0.787557 5.259689,-2.172576 7.805711,-4.021123 4.451933,-3.23234 12.935211,2.513137 15.34718,-1.959396 2.0554,-3.811345 7.125824,-3.266064 10.908388,-2.298264 4.324608,1.106487 7.862699,2.202953 11.608678,4.180004 3.060474,1.615258 8.329404,3.431309 8.559024,6.610503 0.23777,3.291995 3.20694,5.39081 3.84115,8.301402 0.48454,2.223781 2.03735,6.710543 2.56496,9.06542 0.85483,3.815324 1.93588,7.849821 -1.18475,10.601773 -3.3382,2.943826 -0.91216,-0.374358 -2.45317,-4.012926 -1.61097,-3.803759 -3.17785,-8.080445 -6.61486,-10.855972 -2.42576,-1.958903 -2.348768,-5.162574 -4.494198,-6.859564 -3.836332,-3.034458 -9.980051,-3.356861 -14.659158,-2.14935 -4.111825,1.061116 -8.554834,-2.538022 -11.557936,-1.115862 -3.992194,1.890559 -7.886636,2.879845 -11.628772,4.920968 -2.794248,1.524104 -6.196524,1.709617 -7.096101,6.859565 -0.569807,3.262066 0.796335,5.283207 -1.655756,8.515318 -2.52876,3.333169 -3.28332,7.003972 -4.257042,11.470794 -0.733011,3.362597 2.313139,6.813877 -0.473692,8.161751 -1.795401,0.86836 -0.71336,5.422616 1.419221,5.440341 3.232988,0.02687 6.502539,0.369244 4.257661,4.257662 -1.514845,2.623907 -7.739318,7.633121 -2.798114,8.016266 4.451316,0.345158 -4.911963,5.09442 -0.04033,6.175932 3.389177,0.752404 4.782208,-4.464314 7.096101,2.128831 1.06849,3.044528 1.004274,7.067641 3.548049,9.934539 1.763826,1.98788 2.879458,-3.707976 4.021123,-1.65576 2.102894,3.78009 4.619962,6.10598 7.569175,8.9884 1.609899,1.57344 3.80169,-0.15368 5.913415,3.07497 1.234259,1.88708 2.088252,4.16614 3.074978,6.85957 1.021425,2.78815 4.094618,3.48167 4.494195,6.14995 0.521068,3.47958 2.538479,4.58618 4.021123,8.04225 1.734461,4.04307 1.867276,6.38682 3.54805,10.88068 1.769247,4.73041 -0.171201,9.57524 -0.67835,14.40627 -0.375133,3.57346 -1.616281,6.03522 -2.345009,9.35038 -0.545425,2.48127 -0.921843,4.55853 -0.288152,6.75658 0.185564,0.64366 -1.014389,0.50285 -1.182685,0.94615 z"
       id="path1" />
    <path
       style="fill:#000000;stroke-width:0.264584"
       d="m 117.32218,63.154544 c -2.56821,2.770801 -1.54006,11.812834 -0.47307,8.751856 1.04946,-3.010682 3.27986,-1.294673 3.54805,-4.494195 0.33214,-3.962515 1.91353,-6.319614 4.96727,-8.042246 2.77023,-1.562702 2.28678,-6.610545 5.6795,-7.520012 2.8017,-0.751035 3.91078,-3.200532 6.12217,-4.570129 1.73657,-1.075522 8.65313,-1.182224 6.41166,-1.865524 -3.3174,-1.011289 4.00499,-1.89692 5.69925,-1.850863 5.116,0.139073 9.24823,0.546189 12.27753,4.452768 1.47601,1.90346 7.31243,2.061057 6.39074,4.493461 -1.14316,3.016911 2.17851,5.579152 2.95246,8.634323 0.93164,3.677655 4.75131,8.295427 1.99894,11.585484 -2.40413,2.873792 -2.17956,8.044374 -3.59674,10.984865 -0.92797,1.925458 -2.39939,4.776632 -2.54159,6.641929 -0.21865,2.868167 -1.16316,5.069692 -3.54805,7.0961 -1.77851,1.51118 -2.39963,4.664119 -4.4942,4.730729 -2.4392,0.0776 -2.96935,2.5791 -5.20381,3.31152 -2.73997,0.89812 -3.06231,4.28154 -4.96727,5.67688 -2.54378,1.86325 -4.97922,3.80054 -6.41987,6.66259 -1.14132,2.26736 -1.24638,4.79577 -3.98774,6.11039 -3.4321,1.64586 -5.92022,2.31723 -9.10666,4.61246 -1.67462,1.20625 -2.78248,3.72016 -5.32208,3.19325 -4.55606,-0.94529 -6.77112,2.98334 -9.93453,4.02112 -1.41339,0.46367 -2.5767,1.82535 -3.54805,3.54805 -1.18272,2.09756 -2.06429,4.80025 -4.08001,5.84445 -2.40554,1.24614 -4.50541,2.75168 -5.22254,5.37256 -0.63021,2.30324 0.22069,7.95761 -2.855953,7.47491 -1.33416,-0.20932 2.815813,-2.79099 0.331665,-0.006 -1.437676,1.61206 -4.672172,6.76389 -2.601902,6.14995 2.577183,-0.76426 3.750037,-3.10766 4.021123,-5.67688 0.286627,-2.71647 2.179437,-3.74702 3.311517,-4.96727 1.37592,-1.48308 3.93932,-2.94769 5.67688,-4.4942 1.89133,-1.68336 4.39589,-0.39144 5.50247,-2.6663 1.50563,-3.09519 6.2976,-1.16582 7.76237,-4.12504 1.64241,-3.31811 5.33709,-2.75147 8.49653,-3.37973 2.53121,-0.50333 6.34401,-1.77352 6.86069,-4.74776 0.79969,-4.60339 2.53618,-5.8638 7.56805,-7.55215 2.54172,-0.85282 10.38024,-1.02094 7.33263,-4.25766 -2.11734,-2.24872 0.90707,-3.89158 2.79829,-4.90285 1.81842,-0.97234 2.6108,-3.38116 5.25513,-3.26883 3.10803,0.13202 5.18409,-2.34246 7.558,-6.25706 1.69507,-2.79518 0.11337,-6.50401 2.36537,-8.751852 2.11889,-2.114986 6.2138,-5.507447 8.27878,-8.751857 2.53852,-3.988411 1.48079,-8.654596 3.18596,-12.754795 1.75227,-4.213425 -0.12583,-9.000586 1.18997,-13.14597 0.93443,-2.943913 2.20745,-9.37249 -1.48261,-11.076256 -3.40512,-1.572207 -0.94881,-6.844068 -4.076,-9.384164 -1.38611,-1.125884 -2.75285,-2.08985 -4.4942,-3.074978 -2.33981,-1.323689 -5.57461,-1.575474 -8.0915,-3.113867 -2.13759,-1.306555 -3.07935,-2.874927 -5.86416,-3.272623 -2.85947,-0.408358 -6.26819,-3.474846 -10.17108,-2.365366 -2.91618,0.828987 -6.29943,0.422643 -9.22493,1.182682 -2.6822,0.696831 -6.97964,1.228644 -8.98839,3.311513 -1.93856,2.010088 -4.54755,3.508316 -6.62303,4.730733 -1.47516,0.868843 -2.16111,3.453138 -1.89229,5.67688 0.34258,2.833948 -4.8427,4.437067 -2.12883,6.859565 1.55102,1.384501 1.39724,4.529889 -0.70961,4.494195 -2.65306,-0.04495 -4.77189,2.240602 -0.94615,1.655756 1.65273,-0.252655 -2.40238,1.427667 -0.94615,3.074978 z"
       id="path2" />
    <path
       style="fill:#000000;stroke-width:0.264584"
       d="m 97.453106,174.56331 c -0.05855,2.45697 1.23556,5.21257 0.04694,7.36863 -0.278908,0.50592 -0.600136,0.89155 -0.546624,1.31079 0.106039,0.83075 -0.525465,1.44912 -0.923391,2.25681 -0.241112,0.48939 0.156568,0.66296 -0.424871,1.17149 -0.500432,0.43769 -0.666812,1.51354 -0.867766,2.35373 -0.239888,1.00297 1.025742,1.62663 0.850028,2.49676 -0.157971,0.78226 -0.239584,2.31625 0.499099,2.21697 0.482268,-0.0648 0.558325,0.2557 0.457561,0.79503 -0.22519,1.20529 0.829676,1.22333 1.855168,1.79117 0.619645,0.34311 1.15279,0.43637 1.991078,0.28357 0.905,-0.16496 2.25046,0.75732 2.73966,-0.047 0.28585,-0.47 0.65674,-0.84586 1.05142,-0.50443 0.43929,0.38002 0.36574,0.59507 0.62814,-0.0583 0.19371,-0.48232 0.92735,-0.2044 0.71324,-0.66774 -0.26352,-0.57027 -0.39342,-0.66737 0.2091,-0.89838 0.57159,-0.21915 0.27744,-1.48933 0.24568,-2.13137 -0.0418,-0.84583 0.44817,-2.3725 -0.4178,-2.55921 -0.65425,-0.14107 -1.76267,-0.78103 -1.4977,-1.34057 0.26876,-0.56756 0.0509,-0.55917 -0.45901,-1.06495 -0.66102,-0.65564 -1.06571,-1.33512 -0.96021,-2.24657 0.0676,-0.58412 -0.42846,-0.85427 -0.51058,-1.69216 -0.0668,-0.68188 0.57565,-2.21373 -0.0667,-2.21122 -0.37068,0.001 -0.0544,-0.37943 -0.68722,-0.83585 -0.39259,-0.28316 0.18088,-1.18214 -0.65632,-0.98078 -0.70164,0.16875 -0.6065,-0.27824 -0.774838,-0.78474 -0.235159,-0.70756 -0.109343,-1.57838 -0.470167,-2.27077 -0.642417,-1.23275 0.925685,-3.07214 -0.131607,-3.87972 -0.641571,-0.49005 -0.408607,-1.49878 -0.474055,-2.19114 -0.06002,-0.63495 -0.199744,-2.68183 -0.281099,-2.21127 -0.208218,1.20433 -0.147764,2.42561 -0.10615,3.64271 0.02774,0.81141 -0.789802,1.30342 -0.797084,1.81892 -0.0052,0.36494 -0.160656,0.71389 -0.233904,1.06961 z"
       id="path4" />
    <path
       style="fill:#000000;stroke-width:0.264584"
       d="m 151.62,129.38481 c -0.47436,0.002 -0.85827,0.45851 -1.28796,0.2679 -0.50254,-0.22293 -0.45108,0.33266 -1.03899,0.52156 -0.64488,0.20721 -1.00774,0.447 -1.15835,0.95323 -0.14863,0.49959 -0.44958,0.75779 -0.7135,0.85216 -0.60986,0.21809 -0.73912,0.59699 -1.47808,0.9532 -0.28504,0.1374 0.19128,-0.0282 -0.11733,0.28987 -0.45973,0.47378 -0.86441,0.74971 -1.28358,1.42768 -0.29056,0.46997 -0.80435,0.54674 -0.62984,1.26942 0.22875,0.94728 -0.60957,1.57339 -0.67443,2.41966 -0.0795,1.03788 0.71726,2.23767 0.10328,3.10869 -0.5227,0.74152 -0.60077,1.61116 -0.60256,2.48911 -9.9e-4,0.4818 -0.55865,0.25474 -0.38074,0.9179 0.25095,0.93538 -0.004,1.71562 -0.41709,2.62699 -0.347,0.76515 -0.89055,1.44776 -1.38582,2.16703 -0.24038,0.34911 -0.34071,0.7168 -0.63058,0.58219 -0.49036,-0.22773 -0.80797,0.004 -0.85658,0.49433 -0.044,0.44346 -0.83717,0.25932 -1.11371,-0.36827 -0.22817,-0.51782 -0.71345,-0.53475 -1.03751,-1.19453 -0.33987,-0.69197 -1.73711,-1.31088 -1.41248,-1.90661 0.28343,-0.52013 -0.60104,-0.30487 -0.21855,-0.99186 0.31591,-0.56738 0.99659,-0.84122 0.72298,-1.50477 -0.25291,-0.61335 0.24598,-0.31167 0.23282,-1.07287 -0.0145,-0.8369 0.26397,-1.91802 1.1864,-2.0021 0.91368,-0.0833 1.25994,-0.91493 0.97751,-1.5245 -0.22378,-0.48297 -0.0932,-0.61985 0.29479,-0.66969 0.61171,-0.0786 0.41768,-0.12195 0.72314,-0.81325 0.20127,-0.4555 1.06735,-0.59538 0.64523,-1.07278 -0.42405,-0.4796 0.6041,-0.58327 0.22812,-0.64896 -0.54801,-0.0958 0.5501,-0.13087 0.55238,-0.49742 0.005,-0.75525 0.54129,-1.59772 1.13263,-1.189 0.31255,0.21604 -0.0717,0.0286 0.50311,-0.23124 0.62694,-0.28336 0.69041,-1.555 1.38873,-1.1977 0.4503,0.2304 0.62825,-0.0576 0.65811,-0.31042 0.0752,-0.63661 1.11551,-0.73888 1.18209,-1.36537 0.0515,-0.48451 0.46425,-1.40291 0.99512,-1.15229 0.73189,0.34554 1.47116,0.20647 1.59973,-0.44461 0.1848,-0.93582 1.04709,-0.46014 1.81399,-0.75027 0.48671,-0.18414 0.99379,-0.30547 1.49752,-0.43241 z"
       id="path5" />
    <path
       style="fill:#000000;stroke-width:0.264584"
       d="m 114.01067,79.948647 c -1.90623,0.753646 -3.8031,1.907806 -5.74915,1.983561 -2.50029,0.09733 -5.11372,0.02983 -7.2981,1.194402 -2.159002,1.151043 -4.733563,0.472119 -6.821827,1.552771 -1.607156,0.831684 -3.183034,1.559698 -4.837149,2.024599 -1.755415,0.493373 -6.582767,3.267501 -5.097393,2.469599 0.705824,-0.379149 3.55688,-0.768012 5.103477,-0.718699 2.055997,0.06555 3.980012,-1.074154 5.992554,-0.801967 2.418507,0.327092 4.401819,-1.259132 6.822038,-1.160501 3.2552,0.132658 6.51011,0.06154 9.81111,0.07737 3.51553,0.01685 7.06242,0.489639 10.54679,0.06776 0.54251,-0.06568 3.12198,-0.659606 2.38526,-0.417162 -1.94996,0.641704 -3.53714,1.722954 -5.42298,2.304462 -1.65133,0.509196 -3.67425,0.135427 -5.04741,1.069444 -1.80222,1.22587 -3.87693,1.230157 -6.0641,1.47158 -2.02849,0.223907 -3.82443,0.96294 -5.82914,1.326269 -1.66841,0.302378 -3.579389,0.398664 -5.057083,1.149682 -1.52127,0.773165 -3.503616,1.255916 -5.44108,1.258715 -2.142075,0.0031 -4.369986,0.34782 -6.057613,1.515182 -2.07354,1.434306 2.766517,-0.281824 3.848657,-0.2895 2.455987,-0.01742 4.747468,-1.045169 7.209352,-0.977446 3.522927,0.09691 7.068527,0.422689 10.573217,0.104268 1.89066,-0.171777 2.95063,-0.473352 4.59902,-1.010262 1.67207,-0.544622 3.47532,-1.28463 5.24241,-0.750485 1.18374,0.357813 4.95441,-0.0935 4.2379,0.05733 -2.01859,0.424925 -3.95246,1.195159 -5.52122,2.493175 -2.09883,1.736615 -5.36809,0.6212 -7.56788,1.982632 -1.6589,1.026676 -3.7466,1.17237 -5.42224,2.284897 -1.77965,1.18159 -3.359821,2.52666 -5.386009,2.47245 -1.313473,-0.0351 -2.221549,0.19927 -3.191238,1.00751 -1.111652,0.92657 1.30831,1.02656 2.348993,0.8505 2.206036,-0.37321 4.464304,-0.17346 6.683224,-0.4654 2.44185,-0.32127 5.79319,-2.18073 7.63827,-0.42868 1.80961,1.71836 -1.1251,3.09874 -2.42935,4.08988 -1.22909,0.93404 -1.7819,2.18455 -3.65462,2.30544 -1.06237,0.0686 -2.50092,1.50088 -2.82662,1.62634 -2.22606,0.85746 -2.875678,3.48793 -4.640169,4.55719 -0.930109,0.56363 -1.62479,1.53169 0.16465,1.55384 2.969869,0.0368 5.468049,-2.56176 8.349739,-2.35025 1.11151,0.0816 5.37731,-0.10149 2.92832,1.24355 -1.3276,0.72914 -2.63599,1.89604 -3.40139,2.3045 -1.24493,0.66435 -1.71065,2.99662 -3.07498,3.31151 -0.64612,0.14913 -1.44789,1.67763 -1.65472,2.06147 -0.45815,0.85026 -1.090461,1.59886 -1.672161,2.42165 -0.922675,1.30508 -1.843212,2.10888 -2.672246,3.51918 -0.889212,1.51267 -0.104726,0.11776 0.804218,0.0121 1.323956,-0.1539 2.607429,-1.9222 4.012229,-3.04713 1.55606,-1.24606 2.79179,-2.86239 4.66052,-3.89357 1.60645,-0.88645 1.8635,-2.36918 3.26836,-3.50337 1.16004,-0.93654 1.19669,-4.23118 2.14631,-3.12097 0.3204,0.37458 0.94037,-0.67601 1.04203,-1.07239 0.2721,-1.06097 0.44481,-1.30036 1.18269,-1.65575 1.73319,-0.8348 0.45159,-1.77969 -1.41923,-1.65576 -1.58696,0.10513 -3.04231,0.99617 -4.49419,1.65576 -0.95856,0.43547 -4.2024,1.40269 -3.53114,0.62935 1.59464,-1.83711 3.6985,-2.94222 5.75459,-4.16226 0.89626,-0.53183 1.12539,-0.53328 1.73901,-0.80573 1.49297,-0.66289 3.04425,-1.25793 4.09264,-2.26272 0.8568,-0.82117 1.2577,-2.35888 1.46284,-3.52485 0.50832,-2.88918 -3.59413,-1.56183 -5.29919,-1.24296 -0.93188,0.17428 -3.59039,-0.0558 -3.14269,-0.32894 1.95284,-1.19138 4.12571,-1.80643 6.33889,-2.15066 1.74646,-0.27163 3.90674,-0.10847 3.93693,-1.427935 0.0221,-0.967474 0.18354,-0.822391 1.15982,-1.748789 1.46449,-1.389679 2.62933,-2.422366 3.65229,-4.193162 0.60036,-1.039247 3.54308,-1.382739 2.88808,-2.398458 -1.12017,-1.737054 -3.82845,-0.54404 -4.85987,0.436519 -0.62751,0.596566 -3.38951,1.374949 -1.41922,0.236536 1.42875,-0.825515 3.16859,-1.595609 4.36796,-2.269482 0.24991,-0.140416 1.52653,-1.494551 2.31186,-2.461426 0.86108,-1.06014 4.41646,-2.619316 2.78164,-3.311339 -1.377,-0.582885 -3.34467,0.534633 -5.04188,0.5848 -1.90004,0.05616 -3.46094,1.110514 -5.17496,1.176903 -2.01743,0.07814 -3.49699,-0.387157 -5.3424,-0.369913 -1.98829,0.01858 -7.6415,1.097345 -5.96559,0.02743 1.32689,-0.847096 3.18386,-1.678654 4.96727,-1.892295 1.8614,-0.222984 4.26075,-0.487228 5.7768,-0.986174 1.42569,-0.469206 2.85215,-1.325794 3.95845,-1.468188 2.95984,-0.380964 -1.76457,-0.927506 -3.04951,-0.867029 -1.89238,0.08907 -3.11265,-0.375101 -4.42443,0.84572 -0.5859,0.54527 -0.91008,0.524749 -1.78824,-0.126232 z"
       id="path6" />
  </g>
</svg>
