<?xml version="1.0" encoding="UTF-8" standalone="no"?>
<!-- Created with Inkscape (http://www.inkscape.org/) -->

<svg
   width="244mm"
   height="105mm"
   viewBox="0 0 244 105"
   version="1.1"
   id="svg1"
   xmlns="http://www.w3.org/2000/svg"
   xmlns:svg="http://www.w3.org/2000/svg">
  <defs
     id="defs1" />
  <g
     id="layer1">
    <path
       d="m 58.552326,29.521922 h -3.396478 v 0.274609 c 1.156248,0.07226 1.344138,0.317968 1.387497,1.849997 v 4.870694 l -5.564443,-6.9953 h -2.47148 v 0.274609 c 0.621483,0 0.823826,0.115625 1.40195,0.79492 v 6.373818 c -0.02891,1.532028 -0.216796,1.777731 -1.40195,1.849996 v 0.274609 H 51.9039 v -0.274609 c -1.112889,-0.05781 -1.329685,-0.361327 -1.358591,-1.849996 v -5.665616 l 6.38827,7.949205 h 0.245703 v -7.60233 c 0.04336,-1.503123 0.231249,-1.748825 1.373044,-1.849997 z m 10.290609,0 h -2.962886 v 0.274609 c 0.794921,0.05781 1.055077,0.202343 1.055077,0.60703 0,0.23125 -0.101172,0.621483 -0.274609,1.055076 l -2.124606,5.304288 -2.182418,-4.885148 c -0.476952,-1.069529 -0.592577,-1.387497 -0.592577,-1.604294 0,-0.289062 0.202343,-0.41914 0.664842,-0.448046 0.07227,0 0.23125,-0.01445 0.41914,-0.02891 v -0.274609 h -3.844524 v 0.274609 c 0.708202,0.02891 0.910545,0.231249 1.532028,1.517575 l 3.555463,7.934752 h 0.216796 l 3.208589,-8.108189 c 0.476952,-1.141795 0.635936,-1.300779 1.329685,-1.344138 z m 6.330459,0.274609 c 0.867186,0.04336 0.982811,0.101172 0.982811,0.448046 0,0.317968 -0.332421,0.751561 -1.127342,1.488669 l -2.558199,2.326949 V 31.09731 c 0.01445,-1.083983 0.158984,-1.214061 1.329686,-1.300779 v -0.274609 h -4.104681 v 0.274609 c 1.112889,0.07226 1.271873,0.245703 1.300779,1.300779 v 6.258192 c -0.01445,1.228514 -0.173437,1.387498 -1.300779,1.459763 v 0.274609 h 4.075774 V 38.815265 C 72.658555,38.743 72.485117,38.584016 72.470664,37.514486 v -2.702729 l 0.375781,-0.303515 1.532029,1.517575 c 1.112888,1.112889 1.878903,2.110153 1.878903,2.457027 0,0.216797 -0.187891,0.303515 -0.607031,0.317968 -0.07227,0 -0.231249,0 -0.404686,0.01445 v 0.274609 h 4.408195 v -0.274609 c -0.751561,-0.01445 -0.953904,-0.158984 -2.269137,-1.560934 l -3.367572,-3.613276 2.746089,-2.717182 c 0.982811,-0.939452 1.214061,-1.055077 2.196871,-1.127342 v -0.274609 h -3.786712 z m 8.859765,-0.476952 c -2.760542,0 -4.726164,2.066793 -4.726164,4.986319 0,1.358592 0.4625,2.688277 1.242967,3.512103 0.83828,0.910546 2.124606,1.474217 3.396478,1.474217 2.847261,0 4.812883,-2.008981 4.812883,-4.928507 0,-1.430857 -0.41914,-2.673824 -1.214061,-3.526557 -0.910545,-0.997264 -2.124605,-1.517575 -3.512103,-1.517575 z m 0,0.520311 c 0.664843,0 1.329685,0.260156 1.849997,0.722655 0.780467,0.708202 1.228513,2.066793 1.228513,3.786712 0,0.852733 -0.173437,1.849997 -0.476952,2.601558 -0.130078,0.361328 -0.37578,0.722655 -0.708202,1.055077 -0.505858,0.505858 -1.156248,0.766014 -1.922262,0.766014 -0.664843,0 -1.315232,-0.260156 -1.835544,-0.708202 -0.737108,-0.664842 -1.21406,-2.124606 -1.21406,-3.7289 0,-1.474216 0.404687,-2.876167 1.011717,-3.555462 0.563671,-0.621484 1.271873,-0.939452 2.066793,-0.939452 z m 17.690591,-0.317968 h -2.876163 l -3.194135,7.298816 -3.338666,-7.298816 h -2.861714 v 0.274609 c 1.185154,0.05781 1.344138,0.216796 1.373045,1.300779 v 5.867959 C 90.79721,38.497297 90.60932,38.743 89.424166,38.815265 v 0.274609 h 3.396478 v -0.274609 c -1.112888,-0.05781 -1.329685,-0.361327 -1.358591,-1.849996 v -5.8246 l 3.627728,7.949205 h 0.202343 l 3.699994,-8.281626 v 6.547254 c -0.01445,1.228514 -0.173437,1.387498 -1.315232,1.459763 v 0.274609 h 4.046864 v -0.274609 c -1.04062,-0.05781 -1.22851,-0.260155 -1.25742,-1.300779 V 31.09731 c 0.0289,-1.040623 0.20235,-1.228514 1.25742,-1.300779 z m 10.76757,9.293343 c -0.65039,-0.04336 -0.79492,-0.18789 -1.30078,-1.257419 l -3.59882,-8.209361 h -0.28906 l -3.00625,7.096472 c -0.925,2.110153 -1.09843,2.341402 -1.79218,2.370308 v 0.274609 h 2.86171 v -0.274609 c -0.69375,0 -0.98281,-0.173437 -0.98281,-0.592577 0,-0.173437 0.0434,-0.37578 0.11562,-0.563671 l 0.66485,-1.691012 h 3.78671 l 0.59258,1.387497 c 0.17343,0.390234 0.27461,0.766015 0.27461,0.968358 0,0.361327 -0.24571,0.476952 -1.01172,0.491405 v 0.274609 h 3.68554 z m -7.08202,-3.439837 1.66211,-3.974603 1.67656,3.974603 z m 13.06559,3.439837 c -1.18515,-0.05781 -1.37304,-0.231249 -1.38749,-1.300779 v -7.385534 h 0.78046 c 1.67656,0.02891 1.98008,0.274609 2.29805,1.849997 h 0.34687 l -0.0867,-2.457027 h -8.15155 l -0.0867,2.457027 h 0.34687 c 0.33242,-1.575388 0.63594,-1.821091 2.29804,-1.849997 h 0.78047 v 7.22655 c -0.0144,1.242967 -0.14453,1.387498 -1.35859,1.459763 v 0.274609 h 4.2203 z m 11.73593,0 c -0.65039,-0.04336 -0.79492,-0.18789 -1.30078,-1.257419 l -3.59882,-8.209361 h -0.28907 l -3.00624,7.096472 c -0.925,2.110153 -1.09844,2.341402 -1.79219,2.370308 v 0.274609 h 2.86172 v -0.274609 c -0.69375,0 -0.98281,-0.173437 -0.98281,-0.592577 0,-0.173437 0.0434,-0.37578 0.11562,-0.563671 l 0.66484,-1.691012 h 3.78672 l 0.59257,1.387497 c 0.17344,0.390234 0.27461,0.766015 0.27461,0.968358 0,0.361327 -0.2457,0.476952 -1.01171,0.491405 v 0.274609 h 3.68554 z m -7.08202,-3.439837 1.6621,-3.974603 1.67656,3.974603 z"
       id="text1"
       style="font-size:14.4531px;line-height:1;font-family:'Nimbus Roman';-inkscape-font-specification:'Nimbus Roman, @wght=700';font-variation-settings:'wght' 700;white-space:pre;inline-size:164.156;stroke-width:0.264593"
       transform="matrix(2.8533564,0,0,6.7758,-132.97341,-179.9499)"
       aria-label="NVKOMATA" />
  </g>
</svg>
